<?xml version="1.0" encoding="UTF-8" standalone="no"?>
<!-- Created with Inkscape (http://www.inkscape.org/) -->

<svg
   xmlns:dc="http://purl.org/dc/elements/1.1/"
   xmlns:cc="http://creativecommons.org/ns#"
   xmlns:rdf="http://www.w3.org/1999/02/22-rdf-syntax-ns#"
   xmlns:svg="http://www.w3.org/2000/svg"
   xmlns="http://www.w3.org/2000/svg"
   xmlns:sodipodi="http://sodipodi.sourceforge.net/DTD/sodipodi-0.dtd"
   xmlns:inkscape="http://www.inkscape.org/namespaces/inkscape"
   id="svg2"
   version="1.1"
   inkscape:version="0.48.2 r9819"
   width="7908.5068"
   height="2299.4026"
   sodipodi:docname="Logo.svg">
  <metadata
     id="metadata8">
    <rdf:RDF>
      <cc:Work
         rdf:about="">
        <dc:format>image/svg+xml</dc:format>
        <dc:type
           rdf:resource="http://purl.org/dc/dcmitype/StillImage" />
        <dc:title />
      </cc:Work>
    </rdf:RDF>
  </metadata>
  <defs
     id="defs6">
    <marker
       inkscape:stockid="Arrow1Mstart"
       orient="auto"
       refY="0"
       refX="0"
       id="Arrow1Mstart"
       style="overflow:visible">
      <path
         id="path3955"
         d="M 0,0 5,-5 -12.5,0 5,5 0,0 z"
         style="fill-rule:evenodd;stroke:#000000;stroke-width:1pt;marker-start:none"
         transform="matrix(0.4,0,0,0.4,4,0)"
         inkscape:connector-curvature="0" />
    </marker>
    <marker
       inkscape:stockid="Arrow1Mend"
       orient="auto"
       refY="0"
       refX="0"
       id="Arrow1Mend"
       style="overflow:visible">
      <path
         id="path3958"
         d="M 0,0 5,-5 -12.5,0 5,5 0,0 z"
         style="fill-rule:evenodd;stroke:#000000;stroke-width:1pt;marker-start:none"
         transform="matrix(-0.4,0,0,-0.4,-4,0)"
         inkscape:connector-curvature="0" />
    </marker>
  </defs>
  <sodipodi:namedview
     pagecolor="#ffffff"
     bordercolor="#666666"
     borderopacity="1"
     objecttolerance="50"
     gridtolerance="50"
     guidetolerance="10"
     inkscape:pageopacity="0"
     inkscape:pageshadow="2"
     inkscape:window-width="1280"
     inkscape:window-height="756"
     id="namedview4"
     showgrid="false"
     showguides="true"
     inkscape:guide-bbox="true"
     inkscape:zoom="0.19494058"
     inkscape:cx="733.36587"
     inkscape:cy="1437.0389"
     inkscape:window-x="0"
     inkscape:window-y="0"
     inkscape:window-maximized="1"
     inkscape:current-layer="layer5"
     fit-margin-top="50"
     fit-margin-left="50"
     fit-margin-right="50"
     fit-margin-bottom="50"
     units="px">
    <inkscape:grid
       type="xygrid"
       id="grid2987"
       empspacing="10"
       visible="true"
       enabled="true"
       snapvisiblegridlinesonly="false"
       spacingx="20px"
       spacingy="20px" />
  </sodipodi:namedview>
  <g
     inkscape:groupmode="layer"
     id="layer3"
     inkscape:label="Grid"
     transform="translate(-298.55339,-754.70951)">
    <path
       style="opacity:1;fill:none;stroke:#d5d5d5;stroke-width:10;stroke-miterlimit:4;stroke-opacity:1;stroke-dasharray:none;stroke-dashoffset:0"
       d="m 449.97704,1471.8186 2558.44086,0"
       id="path4012"
       inkscape:connector-curvature="0" />
    <path
       style="opacity:1;fill:none;stroke:#d5d5d5;stroke-width:10;stroke-miterlimit:4;stroke-opacity:1;stroke-dasharray:none;stroke-dashoffset:0"
       d="m 854.95638,809.7095 0,1362.7876"
       id="path4014"
       inkscape:connector-curvature="0" />
    <path
       style="opacity:1;fill:none;stroke:#d5d5d5;stroke-width:10;stroke-miterlimit:4;stroke-opacity:1;stroke-dasharray:none;stroke-dashoffset:0"
       d="m 1145.7991,848.27896 0,719.96324"
       id="path4016"
       inkscape:connector-curvature="0" />
    <path
       style="opacity:1;fill:none;stroke:#d5d5d5;stroke-width:10;stroke-miterlimit:4;stroke-opacity:1;stroke-dasharray:none;stroke-dashoffset:0"
       d="m 1446.3548,1053.9828 0,1041.3754"
       id="path4018"
       inkscape:connector-curvature="0"
       sodipodi:nodetypes="cc" />
    <path
       style="opacity:1;fill:none;stroke:#d5d5d5;stroke-width:10;stroke-miterlimit:4;stroke-opacity:1;stroke-dasharray:none;stroke-dashoffset:0"
       d="m 353.55339,1173.6911 411.40758,0"
       id="path4020"
       inkscape:connector-curvature="0" />
    <path
       style="opacity:1;fill:none;stroke:#d5d5d5;stroke-width:10;stroke-miterlimit:4;stroke-opacity:1;stroke-dasharray:none;stroke-dashoffset:0"
       d="m 758.53273,1767.5178 1960.61427,0"
       id="path4022"
       inkscape:connector-curvature="0"
       sodipodi:nodetypes="cc" />
    <path
       style="opacity:1;fill:none;stroke:#d5d5d5;stroke-width:10;stroke-miterlimit:4;stroke-opacity:1;stroke-dasharray:none;stroke-dashoffset:0"
       d="m 1141.7991,1561.814 0,925.667"
       id="path4024"
       inkscape:connector-curvature="0" />
    <path
       style="opacity:1;fill:none;stroke:#d5d5d5;stroke-width:10;stroke-miterlimit:4;stroke-opacity:1;stroke-dasharray:none;stroke-dashoffset:0"
       d="m 1073.5167,2069.6452 745.6762,0"
       id="path4026"
       inkscape:connector-curvature="0" />
  </g>
  <g
     inkscape:groupmode="layer"
     id="layer1"
     inkscape:label="Color"
     transform="translate(-298.55339,-754.70951)">
    <path
       style="fill:none;stroke:none;opacity:1"
       d="m 920,2326 10,-950"
       id="path3941"
       inkscape:connector-curvature="0" />
    <path
       style="opacity:1;fill:none;stroke:#bfbfbf;stroke-width:180;stroke-miterlimit:4;stroke-opacity:1;stroke-dasharray:none;stroke-dashoffset:0"
       d="m 920,2366 10,-1010 390,350 360,-350 -10,1000"
       id="path3953"
       inkscape:connector-curvature="0" />
    <path
       sodipodi:type="arc"
       style="opacity:1;fill:none;stroke:#bfbfbf;stroke-width:180;stroke-miterlimit:4;stroke-opacity:1;stroke-dasharray:none;stroke-dashoffset:0"
       id="path3961"
       sodipodi:cx="2105"
       sodipodi:cy="1881"
       sodipodi:rx="175"
       sodipodi:ry="385"
       d="m 2280,1881 c 0,212.6296 -78.3502,385 -175,385 -96.6498,0 -175,-172.3704 -175,-385 0,-212.6296 78.3502,-385 175,-385 96.6498,0 175,172.3704 175,385 z" />
    <path
       style="opacity:1;fill:none;stroke:#bfbfbf;stroke-width:180;stroke-miterlimit:4;stroke-opacity:1;stroke-dasharray:none;stroke-dashoffset:0"
       d="m 2550,1096 20,1250"
       id="path3965"
       inkscape:connector-curvature="0" />
    <path
       style="opacity:1;fill:none;stroke:#bfbfbf;stroke-width:180;stroke-miterlimit:4;stroke-opacity:1;stroke-dasharray:none;stroke-dashoffset:0"
       d="m 2860,1116 -10,1270"
       id="path3967"
       inkscape:connector-curvature="0" />
    <path
       style="opacity:1;fill:none;stroke:#bfbfbf;stroke-width:180;stroke-miterlimit:4;stroke-opacity:1;stroke-dasharray:none;stroke-dashoffset:0"
       d="m 3160,1476 270,800"
       id="path3969"
       inkscape:connector-curvature="0" />
    <path
       style="opacity:1;fill:none;stroke:#bfbfbf;stroke-width:180;stroke-miterlimit:4;stroke-opacity:1;stroke-dasharray:none;stroke-dashoffset:0"
       d="M 3630,1466 3330,2666"
       id="path3971"
       inkscape:connector-curvature="0" />
    <path
       style="opacity:1;fill:none;stroke:#bfbfbf;stroke-width:180;stroke-miterlimit:4;stroke-opacity:1;stroke-dasharray:none;stroke-dashoffset:0"
       d="m 4220,1176 160,1030 300,-280 340,330 180,-1040"
       id="path3973"
       inkscape:connector-curvature="0" />
    <path
       style="opacity:1;fill:none;stroke:#bfbfbf;stroke-width:180;stroke-miterlimit:4;stroke-opacity:1;stroke-dasharray:none;stroke-dashoffset:0"
       d="m 5180,1346 60,-180"
       id="path3975"
       inkscape:connector-curvature="0" />
    <path
       style="opacity:1;fill:none;stroke:#bfbfbf;stroke-width:180;stroke-miterlimit:4;stroke-opacity:1;stroke-dasharray:none;stroke-dashoffset:0"
       d="m 5480,1146 20,1210"
       id="path3977"
       inkscape:connector-curvature="0" />
    <path
       style="opacity:1;fill:none;stroke:#bfbfbf;stroke-width:180;stroke-miterlimit:4;stroke-opacity:1;stroke-dasharray:none;stroke-dashoffset:0"
       d="m 5520,1716 c 150,-156.9117 300,-239.3764 450,0 l 20,650"
       id="path3979"
       inkscape:connector-curvature="0"
       sodipodi:nodetypes="ccc" />
    <path
       style="opacity:1;fill:none;stroke:#bfbfbf;stroke-width:180;stroke-miterlimit:4;stroke-opacity:1;stroke-dasharray:none;stroke-dashoffset:0"
       d="m 6310,1486 0,860"
       id="path3981"
       inkscape:connector-curvature="0" />
    <path
       style="opacity:1;fill:none;stroke:#bfbfbf;stroke-width:180;stroke-miterlimit:4;stroke-opacity:1;stroke-dasharray:none;stroke-dashoffset:0"
       d="m 6790,1126 20,1260"
       id="path3983"
       inkscape:connector-curvature="0" />
    <path
       style="opacity:1;fill:none;stroke:#bfbfbf;stroke-width:180;stroke-miterlimit:4;stroke-opacity:1;stroke-dasharray:none;stroke-dashoffset:0"
       d="m 6530,1556 500,-10"
       id="path3985"
       inkscape:connector-curvature="0"
       sodipodi:nodetypes="cc" />
    <path
       style="opacity:1;fill:none;stroke:#bfbfbf;stroke-width:180;stroke-miterlimit:4;stroke-opacity:1;stroke-dasharray:none;stroke-dashoffset:0"
       d="M 7610,1906 C 7301.4157,838.99038 6867.8934,2736.5682 7497.5736,2205.4975"
       id="path3987"
       inkscape:connector-curvature="0"
       sodipodi:nodetypes="cc" />
    <path
       style="opacity:1;fill:none;stroke:#bfbfbf;stroke-width:180;stroke-miterlimit:4;stroke-opacity:1;stroke-dasharray:none;stroke-dashoffset:0"
       d="m 7170,1916 390,-20"
       id="path3989"
       inkscape:connector-curvature="0" />
    <path
       style="opacity:1;fill:none;stroke:#bfbfbf;stroke-width:180;stroke-miterlimit:4;stroke-opacity:1;stroke-dasharray:none;stroke-dashoffset:0"
       d="M 7431.6923,2271.4921"
       id="path3993"
       inkscape:connector-curvature="0" />
    <path
       style="opacity:1;fill:none;stroke:#bfbfbf;stroke-width:180;stroke-miterlimit:4;stroke-opacity:1;stroke-dasharray:none;stroke-dashoffset:0"
       d="m 7389.2659,2299.7763 169.7056,-226.2741"
       id="path3995"
       inkscape:connector-curvature="0" />
    <path
       style="opacity:1;fill:none;stroke:#bfbfbf;stroke-width:180;stroke-miterlimit:4;stroke-opacity:1;stroke-dasharray:none;stroke-dashoffset:0"
       d="m 7580.1847,1988.6493 0,-148.4924"
       id="path3997"
       inkscape:connector-curvature="0" />
    <path
       style="opacity:1;fill:none;stroke:#bfbfbf;stroke-width:180;stroke-miterlimit:4;stroke-opacity:1;stroke-dasharray:none;stroke-dashoffset:0"
       d="m 5925.5548,1642.167 49.4975,205.061"
       id="path4003"
       inkscape:connector-curvature="0" />
    <path
       style="opacity:1;fill:none;stroke:#bfbfbf;stroke-width:180;stroke-miterlimit:4;stroke-opacity:1;stroke-dasharray:none;stroke-dashoffset:0"
       d="M 4405.2752,2363.4159 4299.2092,1748.233"
       id="path4009"
       inkscape:connector-curvature="0" />
    <path
       style="opacity:1;fill:#bfbfbf;fill-opacity:1;stroke:#bfbfbf;stroke-width:2;stroke-miterlimit:4;stroke-opacity:1;stroke-dasharray:none;stroke-dashoffset:0"
       d="m 6021.7543,464.08704 c -87.6112,21.9918 -75.2854,43.98359 -77.9709,65.97539 l 37.7403,99.26116 c 26.7363,-0.85348 47.5747,-1.70697 80.5314,-2.56045 l 43.6679,-90.70294 c -16.9869,-39.39483 -33.6883,-79.18927 -83.9687,-71.97316 z"
       id="path3126"
       inkscape:connector-curvature="0"
       transform="translate(298.55339,754.70951)"
       sodipodi:nodetypes="cccccc" />
  </g>
  <g
     inkscape:groupmode="layer"
     id="layer4"
     inkscape:label="Trace"
     style="display:inline"
     transform="translate(-298.55339,-754.70951)">
    <path
       style="fill:none;stroke:#000000;stroke-width:15;stroke-linecap:round;stroke-linejoin:miter;stroke-miterlimit:4;stroke-opacity:1;stroke-dasharray:none;opacity:1"
       d="m 841.66667,1186.8333 8.33333,1187.5 154.1667,0 -4.1667,4.1667 12.5,-825 287.5,279.1667 287.5,-304.1667 20.8333,837.5 141.6667,4.1667 0,-1208.3334 -450,475 z"
       id="path3789"
       inkscape:connector-curvature="0" />
    <path
       style="fill:none;stroke:#000000;stroke-width:15;stroke-linecap:round;stroke-linejoin:miter;stroke-miterlimit:4;stroke-opacity:1;stroke-dasharray:none;opacity:1"
       d="M 837.5,1178.5 850,2374.3333"
       id="path3791"
       inkscape:connector-curvature="0" />
    <path
       style="fill:none;stroke:#000000;stroke-width:15;stroke-linecap:round;stroke-linejoin:miter;stroke-miterlimit:4;stroke-opacity:1;stroke-dasharray:none;opacity:1"
       d="m 1291.6667,1645.1667 466.6666,-495.8334"
       id="path3793"
       inkscape:connector-curvature="0" />
    <path
       style="fill:none;stroke:#000000;stroke-width:15;stroke-linecap:round;stroke-linejoin:miter;stroke-miterlimit:4;stroke-opacity:1;stroke-dasharray:none;opacity:1"
       d="M 833.33333,1157.6667 1304.1667,1641"
       id="path3795"
       inkscape:connector-curvature="0" />
    <path
       style="opacity:1;fill:none;stroke:#000000;stroke-width:15;stroke-linecap:round;stroke-miterlimit:4;stroke-opacity:1;stroke-dasharray:none;stroke-dashoffset:0"
       d="M 837.5,1128.5 850,2466"
       id="path3797"
       inkscape:connector-curvature="0" />
    <path
       style="opacity:1;fill:none;stroke:#000000;stroke-width:15;stroke-linecap:round;stroke-miterlimit:4;stroke-opacity:1;stroke-dasharray:none;stroke-dashoffset:0"
       d="m 991.66667,1528.5 350.00003,345.8333"
       id="path3799"
       inkscape:connector-curvature="0" />
    <path
       style="opacity:1;fill:none;stroke:#000000;stroke-width:15;stroke-linecap:round;stroke-miterlimit:4;stroke-opacity:1;stroke-dasharray:none;stroke-dashoffset:0"
       d="M 1275,1849.3333 1600,1516"
       id="path3801"
       inkscape:connector-curvature="0" />
    <path
       style="opacity:1;fill:none;stroke:#000000;stroke-width:15;stroke-linecap:round;stroke-miterlimit:4;stroke-opacity:1;stroke-dasharray:none;stroke-dashoffset:0"
       d="m 1762.5,1166 -20.8333,1225"
       id="path3803"
       inkscape:connector-curvature="0" />
    <path
       style="opacity:1;fill:none;stroke:#000000;stroke-width:15;stroke-linecap:round;stroke-miterlimit:4;stroke-opacity:1;stroke-dasharray:none;stroke-dashoffset:0"
       d="m 1591.6667,2370.1667 179.1666,-12.5"
       id="path3805"
       inkscape:connector-curvature="0" />
    <path
       style="opacity:1;fill:none;stroke:#000000;stroke-width:15;stroke-linecap:round;stroke-miterlimit:4;stroke-opacity:1;stroke-dasharray:none;stroke-dashoffset:0"
       d="M 837.5,1182.6667 837.5,2391"
       id="path3807"
       inkscape:connector-curvature="0" />
    <path
       style="opacity:1;fill:none;stroke:#000000;stroke-width:15;stroke-linecap:round;stroke-miterlimit:4;stroke-opacity:1;stroke-dasharray:none;stroke-dashoffset:0"
       d="M 1008.3333,2357.6667 1000,1549.3333"
       id="path3809"
       inkscape:connector-curvature="0" />
    <path
       style="opacity:1;fill:none;stroke:#000000;stroke-width:15;stroke-linecap:round;stroke-miterlimit:4;stroke-opacity:1;stroke-dasharray:none;stroke-dashoffset:0"
       d="m 1000,1556 290,266.6667"
       id="path3811"
       inkscape:connector-curvature="0" />
    <path
       style="opacity:1;fill:none;stroke:#000000;stroke-width:15;stroke-linecap:round;stroke-miterlimit:4;stroke-opacity:1;stroke-dasharray:none;stroke-dashoffset:0"
       d="m 2136.6667,1456 c -298.9009,1.6572 -409.4225,847.9531 -3.3334,893.3333 281.5008,-51.0791 307.6124,-878.1522 3.3334,-893.3333 z"
       id="path3813"
       inkscape:connector-curvature="0"
       sodipodi:nodetypes="ccc" />
    <path
       sodipodi:type="arc"
       style="opacity:1;fill:none;stroke:#000000;stroke-width:15;stroke-linecap:round;stroke-miterlimit:4;stroke-opacity:1;stroke-dasharray:none;stroke-dashoffset:0"
       id="path3827"
       sodipodi:cx="2086.6667"
       sodipodi:cy="1907.6666"
       sodipodi:rx="256.66666"
       sodipodi:ry="448.33334"
       d="m 2343.3243,1903.8889 a 256.66666,448.33334 0 1 1 -0.071,-7.41"
       sodipodi:start="6.274759"
       sodipodi:end="12.541414"
       sodipodi:open="true"
       transform="translate(30,6.666667)" />
    <path
       sodipodi:type="arc"
       style="opacity:1;fill:none;stroke:#000000;stroke-width:15;stroke-linecap:round;stroke-miterlimit:4;stroke-opacity:1;stroke-dasharray:none;stroke-dashoffset:0"
       id="path3829"
       sodipodi:cx="2118.3333"
       sodipodi:cy="1909.3334"
       sodipodi:rx="128.33333"
       sodipodi:ry="296.66669"
       d="m 2246.662,1906.8336 a 128.33333,296.66669 0 1 1 -0.035,-4.9033"
       sodipodi:start="6.274759"
       sodipodi:end="12.541414"
       sodipodi:open="true" />
    <path
       style="opacity:1;fill:none;stroke:#000000;stroke-width:15;stroke-linecap:round;stroke-miterlimit:4;stroke-opacity:1;stroke-dasharray:none;stroke-dashoffset:0"
       d="m 2046.6667,1662.6667 c 43.3291,-58.8785 70.8373,-78.2044 96.6666,-93.3334"
       id="path3831"
       inkscape:connector-curvature="0"
       sodipodi:nodetypes="cc" />
    <rect
       style="opacity:1;fill:none;stroke:#000000;stroke-width:15;stroke-linecap:round;stroke-miterlimit:4;stroke-opacity:1;stroke-dasharray:none;stroke-dashoffset:0"
       id="rect3833"
       width="153.33333"
       height="1263.3334"
       x="2490"
       y="1102.6666" />
    <rect
       style="opacity:1;fill:none;stroke:#000000;stroke-width:15;stroke-linecap:round;stroke-miterlimit:4;stroke-opacity:1;stroke-dasharray:none;stroke-dashoffset:0"
       id="rect3835"
       width="150"
       height="1263.3334"
       x="2790"
       y="1102.6666" />
    <path
       style="opacity:1;fill:none;stroke:#000000;stroke-width:15;stroke-linecap:round;stroke-miterlimit:4;stroke-opacity:1;stroke-dasharray:none;stroke-dashoffset:0"
       d="m 2490,1082.6667 13.3333,1326.6666"
       id="path3837"
       inkscape:connector-curvature="0" />
    <path
       style="opacity:1;fill:none;stroke:#000000;stroke-width:15;stroke-linecap:round;stroke-miterlimit:4;stroke-opacity:1;stroke-dasharray:none;stroke-dashoffset:0"
       d="m 2490,1099.3333 173.3333,10"
       id="path3839"
       inkscape:connector-curvature="0" />
    <path
       style="opacity:1;fill:none;stroke:#000000;stroke-width:15;stroke-linecap:round;stroke-miterlimit:4;stroke-opacity:1;stroke-dasharray:none;stroke-dashoffset:0"
       d="m 2640,1099.3333 -10,1270"
       id="path3841"
       inkscape:connector-curvature="0" />
    <path
       style="opacity:1;fill:none;stroke:#000000;stroke-width:15;stroke-linecap:round;stroke-miterlimit:4;stroke-opacity:1;stroke-dasharray:none;stroke-dashoffset:0"
       d="m 2636.6667,1116 16.6666,1253.3333"
       id="path3843"
       inkscape:connector-curvature="0" />
    <path
       style="opacity:1;fill:none;stroke:#000000;stroke-width:15;stroke-linecap:round;stroke-miterlimit:4;stroke-opacity:1;stroke-dasharray:none;stroke-dashoffset:0"
       d="m 2736.6667,1102.6667 186.6666,0"
       id="path3845"
       inkscape:connector-curvature="0" />
    <path
       style="opacity:1;fill:none;stroke:#000000;stroke-width:15;stroke-linecap:round;stroke-miterlimit:4;stroke-opacity:1;stroke-dasharray:none;stroke-dashoffset:0"
       d="m 2790,1196 0,-136.6667"
       id="path3847"
       inkscape:connector-curvature="0" />
    <path
       style="opacity:1;fill:none;stroke:#000000;stroke-width:15;stroke-linecap:round;stroke-miterlimit:4;stroke-opacity:1;stroke-dasharray:none;stroke-dashoffset:0"
       d="m 2763.3333,2346 193.3334,16.6667"
       id="path3849"
       inkscape:connector-curvature="0" />
    <path
       style="opacity:1;fill:none;stroke:#000000;stroke-width:15;stroke-linecap:round;stroke-miterlimit:4;stroke-opacity:1;stroke-dasharray:none;stroke-dashoffset:0"
       d="m 2776.6667,2376 170,-26.6667"
       id="path3851"
       inkscape:connector-curvature="0" />
    <path
       style="opacity:1;fill:none;stroke:#000000;stroke-width:15;stroke-linecap:round;stroke-miterlimit:4;stroke-opacity:1;stroke-dasharray:none;stroke-dashoffset:0"
       d="m 2936.6667,1062.6667 -3.3334,1316.6666"
       id="path3853"
       inkscape:connector-curvature="0" />
    <path
       style="opacity:1;fill:none;stroke:#000000;stroke-width:15;stroke-linecap:round;stroke-miterlimit:4;stroke-opacity:1;stroke-dasharray:none;stroke-dashoffset:0"
       d="m 3100,1476 260,876.6667 -110,323.3333 146.6667,-6.6667 313.3333,-1200 -150,3.3334 L 3436.6667,2066 3240,1472.6667 z"
       id="path3855"
       inkscape:connector-curvature="0" />
    <path
       style="opacity:1;fill:none;stroke:#000000;stroke-width:15;stroke-linecap:round;stroke-miterlimit:4;stroke-opacity:1;stroke-dasharray:none;stroke-dashoffset:0"
       d="m 3233.3333,2699.3333 146.6667,-390"
       id="path3857"
       inkscape:connector-curvature="0" />
    <path
       style="opacity:1;fill:none;stroke:#000000;stroke-width:15;stroke-linecap:round;stroke-miterlimit:4;stroke-opacity:1;stroke-dasharray:none;stroke-dashoffset:0"
       d="M 3576.6667,1462.6667 3443.3333,2076"
       id="path3859"
       inkscape:connector-curvature="0" />
    <path
       style="opacity:1;fill:none;stroke:#000000;stroke-width:15;stroke-linecap:round;stroke-miterlimit:4;stroke-opacity:1;stroke-dasharray:none;stroke-dashoffset:0"
       d="M 3220,2649.3333 3393.3333,2666"
       id="path3861"
       inkscape:connector-curvature="0" />
    <path
       style="opacity:1;fill:none;stroke:#000000;stroke-width:15;stroke-linecap:round;stroke-miterlimit:4;stroke-opacity:1;stroke-dasharray:none;stroke-dashoffset:0"
       d="M 3220,2659.3333 3380,2666"
       id="path3863"
       inkscape:connector-curvature="0" />
    <path
       style="opacity:1;fill:none;stroke:#000000;stroke-width:15;stroke-linecap:round;stroke-miterlimit:4;stroke-opacity:1;stroke-dasharray:none;stroke-dashoffset:0"
       d="M 3400,2669.3333 3696.6667,1462.6667"
       id="path3865"
       inkscape:connector-curvature="0" />
    <path
       style="opacity:1;fill:none;stroke:#000000;stroke-width:15;stroke-linecap:round;stroke-miterlimit:4;stroke-opacity:1;stroke-dasharray:none;stroke-dashoffset:0"
       d="m 3103.3333,1472.6667 273.3334,850"
       id="path3867"
       inkscape:connector-curvature="0" />
    <path
       style="opacity:1;fill:none;stroke:#000000;stroke-width:15;stroke-linecap:round;stroke-miterlimit:4;stroke-opacity:1;stroke-dasharray:none;stroke-dashoffset:0"
       d="M 4140,1179.3333 4336.6667,2372.6667 4680,2029.3333 5030,2386 l 276.6667,-1220 -180,3.3333 -183.3334,953.3334 -236.6666,-303.3334 -246.6667,220 L 4316.6667,1176 z"
       id="path3869"
       inkscape:connector-curvature="0" />
    <path
       style="opacity:1;fill:none;stroke:#000000;stroke-width:15;stroke-linecap:round;stroke-miterlimit:4;stroke-opacity:1;stroke-dasharray:none;stroke-dashoffset:0"
       d="m 4720,1826 246.6667,260"
       id="path3871"
       inkscape:connector-curvature="0" />
    <path
       style="opacity:1;fill:none;stroke:#000000;stroke-width:15;stroke-linecap:round;stroke-miterlimit:4;stroke-opacity:1;stroke-dasharray:none;stroke-dashoffset:0"
       d="M 5146.6667,1156 4940,2092.6667"
       id="path3873"
       inkscape:connector-curvature="0" />
    <path
       style="opacity:1;fill:none;stroke:#000000;stroke-width:15;stroke-linecap:round;stroke-miterlimit:4;stroke-opacity:1;stroke-dasharray:none;stroke-dashoffset:0"
       d="m 4333.3333,2366 343.3334,-340"
       id="path3875"
       inkscape:connector-curvature="0" />
    <path
       style="opacity:1;fill:none;stroke:#000000;stroke-width:15;stroke-linecap:round;stroke-miterlimit:4;stroke-opacity:1;stroke-dasharray:none;stroke-dashoffset:0"
       d="m 4720,1836 c 3.3333,16.6667 226.6667,243.3333 226.6667,243.3333"
       id="path3877"
       inkscape:connector-curvature="0" />
    <path
       style="opacity:1;fill:none;stroke:#000000;stroke-width:15;stroke-linecap:round;stroke-miterlimit:4;stroke-opacity:1;stroke-dasharray:none;stroke-dashoffset:0"
       d="M 5306.6667,1169.3333 5020,2432.6667"
       id="path3879"
       inkscape:connector-curvature="0" />
    <path
       style="opacity:1;fill:none;stroke:#000000;stroke-width:15;stroke-linecap:round;stroke-miterlimit:4;stroke-opacity:1;stroke-dasharray:none;stroke-dashoffset:0"
       d="m 4130,1116 10,86.6667"
       id="path3881"
       inkscape:connector-curvature="0" />
    <path
       style="opacity:1;fill:none;stroke:#000000;stroke-width:15;stroke-linecap:round;stroke-miterlimit:4;stroke-opacity:1;stroke-dasharray:none;stroke-dashoffset:0"
       d="M 4100,1179.3333 4350,1176"
       id="path3883"
       inkscape:connector-curvature="0" />
    <path
       style="opacity:1;fill:none;stroke:#000000;stroke-width:15;stroke-linecap:round;stroke-miterlimit:4;stroke-opacity:1;stroke-dasharray:none;stroke-dashoffset:0"
       d="m 4156.6667,1166 176.6666,1210"
       id="path3885"
       inkscape:connector-curvature="0" />
    <path
       style="opacity:1;fill:none;stroke:#000000;stroke-width:15;stroke-linecap:round;stroke-miterlimit:4;stroke-opacity:1;stroke-dasharray:none;stroke-dashoffset:0"
       d="m 5410,1106 16.6667,1266.6667 160,-6.6667 L 5580,1749.3333 c 197.0114,-200.9958 298.0407,-84.6833 340,6.6667 l 16.6667,610 130,3.3333 -20,-610 C 5992.356,1513.2971 5753.1831,1360.3527 5566.6667,1636 L 5570,1122.6667 z"
       id="path3887"
       inkscape:connector-curvature="0"
       sodipodi:nodetypes="ccccccccccc" />
    <path
       style="opacity:1;fill:none;stroke:#000000;stroke-width:15;stroke-linecap:round;stroke-miterlimit:4;stroke-opacity:1;stroke-dasharray:none;stroke-dashoffset:0"
       d="m 5573.3333,1636 120,-200"
       id="path3889"
       inkscape:connector-curvature="0" />
    <path
       style="opacity:1;fill:none;stroke:#000000;stroke-width:15;stroke-linecap:round;stroke-miterlimit:4;stroke-opacity:1;stroke-dasharray:none;stroke-dashoffset:0"
       d="m 6053.3333,1766 -80,-263.3333"
       id="path3891"
       inkscape:connector-curvature="0" />
    <path
       style="opacity:1;fill:none;stroke:#000000;stroke-width:15;stroke-linecap:round;stroke-miterlimit:4;stroke-opacity:1;stroke-dasharray:none;stroke-dashoffset:0"
       d="m 5590,1742.6667 -13.3333,660"
       id="path3893"
       inkscape:connector-curvature="0" />
    <path
       style="opacity:1;fill:none;stroke:#000000;stroke-width:15;stroke-linecap:round;stroke-miterlimit:4;stroke-opacity:1;stroke-dasharray:none;stroke-dashoffset:0"
       d="M 5566.6667,1112.6667 5560,1139.3333 5413.3333,1126 l -16.6666,-6.6667"
       id="path3895"
       inkscape:connector-curvature="0" />
    <path
       style="opacity:1;fill:none;stroke:#000000;stroke-width:15;stroke-linecap:round;stroke-miterlimit:4;stroke-opacity:1;stroke-dasharray:none;stroke-dashoffset:0"
       d="m 5376.6667,1119.3333 c 4.4444,-1.1111 8.841,-2.4348 13.3333,-3.3333 2.1791,-0.4358 4.4444,0 6.6667,0 6.6666,0 13.3333,0 20,0 10,0 20,0 30,0 2.8886,0 11.4024,0.6436 13.3333,0 2.357,-0.7857 4.3096,-2.5477 6.6667,-3.3333 1.0541,-0.3514 2.2222,0 3.3333,0 2.2222,0 4.4444,0 6.6667,0 8.8889,0 17.7777,0 26.6666,0 0.8085,0 9.8928,-0.1072 10,0 0.7857,0.7856 -0.7856,2.5476 0,3.3333 0.1511,0.1511 15.095,0 16.6667,0 4.4444,0 8.8889,0 13.3333,0 1.1111,0 2.5477,-0.7857 3.3334,0 0.7856,0.7857 -0.7857,2.5477 0,3.3333 0.7856,0.7857 2.2222,0 3.3333,0 1.1111,0 2.2222,0 3.3333,0 4.4445,0 8.8889,0 13.3334,0 1.1111,0 3.3333,-1.1111 3.3333,0 0,1.1111 -2.5477,-0.7856 -3.3333,0 -4.4445,4.4445 5.5555,3.3334 -3.3334,3.3334 L 5570,1646"
       id="path3897"
       inkscape:connector-curvature="0" />
    <path
       style="opacity:1;fill:none;stroke:#000000;stroke-width:15;stroke-linecap:round;stroke-miterlimit:4;stroke-opacity:1;stroke-dasharray:none;stroke-dashoffset:0"
       d="m 5640,1546 c 4.4444,-2.2222 11.1111,-11.1111 13.3333,-6.6667 2.2223,4.4445 -16.8469,10.1803 -13.3333,6.6667 4.5812,-4.5812 10.8718,-7.1026 16.6667,-10 0.9938,-0.4969 2.5476,0.7857 3.3333,0 0.7857,-0.7857 -0.7857,-2.5477 0,-3.3333 0.7857,-0.7857 2.3395,0.4969 3.3333,0 1.4055,-0.7028 1.9279,-2.6306 3.3334,-3.3334 0.9938,-0.4969 2.3395,0.4969 3.3333,0 1.4055,-0.7027 1.9279,-2.6306 3.3333,-3.3333 0.9938,-0.4969 2.5477,0.7857 3.3334,0 0.7856,-0.7857 -0.7857,-2.5477 0,-3.3333 0.7856,-0.7857 2.3395,0.4969 3.3333,0 1.4055,-0.7028 1.9279,-2.6306 3.3333,-3.3334 0.9938,-0.4969 2.3396,0.4969 3.3334,0 2.8109,-1.4054 3.8557,-5.2612 6.6666,-6.6666 0.9938,-0.4969 2.3396,0.4969 3.3334,0 2.8109,-1.4055 3.8557,-5.2612 6.6666,-6.6667 0.9938,-0.4969 2.2793,0.3514 3.3334,0 24.1447,-8.0482 -5.2554,0.961 10,-6.6667 0.9938,-0.4969 2.2792,0.3514 3.3333,0 2.357,-0.7856 4.3096,-2.5476 6.6667,-3.3333 1.0541,-0.3514 2.3395,0.4969 3.3333,0 2.8109,-1.4055 3.8558,-5.2612 6.6667,-6.6667 0.9938,-0.4969 2.2222,0 3.3333,0 1.1111,-1.1111 1.9279,-2.6306 3.3333,-3.3333 1.9876,-0.9938 5.0954,1.5713 6.6667,0 0.7857,-0.7857 -0.7857,-2.5477 0,-3.3333 1.5713,-1.5714 4.6791,0.9938 6.6667,0 1.4054,-0.7028 1.9278,-2.6306 3.3333,-3.3334 1.9876,-0.9938 5.0953,1.5714 6.6667,0 0.7856,-0.7856 -0.7857,-2.5476 0,-3.3333 8.8889,0 -1.1111,1.1111 3.3333,-3.3333 0.7857,-0.7857 2.3395,0.4969 3.3333,0 1.4055,-0.7028 1.9279,-2.6306 3.3334,-3.3334 1.9876,-0.9938 5.0953,1.5714 6.6666,0 0.7857,-0.7856 -0.7856,-2.5476 0,-3.3333 2.2229,-2.2229 4.4438,2.2229 6.6667,0 0.7857,-0.7857 0.7857,-2.5477 0,-3.3333 -0.7857,-0.7857 -2.2222,0 -3.3333,0"
       id="path3899"
       inkscape:connector-curvature="0" />
    <path
       style="opacity:1;fill:none;stroke:#000000;stroke-width:15;stroke-linecap:round;stroke-miterlimit:4;stroke-opacity:1;stroke-dasharray:none;stroke-dashoffset:0"
       d="m 5583.3333,1806 40,-93.3333"
       id="path3901"
       inkscape:connector-curvature="0" />
    <rect
       style="opacity:1;fill:none;stroke:#000000;stroke-width:15;stroke-linecap:round;stroke-miterlimit:4;stroke-opacity:1;stroke-dasharray:none;stroke-dashoffset:0"
       id="rect3903"
       width="140"
       height="900"
       x="6236.6665"
       y="1466" />
    <path
       style="opacity:1;fill:none;stroke:#000000;stroke-width:15;stroke-linecap:round;stroke-miterlimit:4;stroke-opacity:1;stroke-dasharray:none;stroke-dashoffset:0"
       d="m 6223.3333,1476 190,-13.3333"
       id="path3905"
       inkscape:connector-curvature="0" />
    <path
       style="opacity:1;fill:none;stroke:#000000;stroke-width:15;stroke-linecap:round;stroke-miterlimit:4;stroke-opacity:1;stroke-dasharray:none;stroke-dashoffset:0"
       d="m 6250,1469.3333 6.6667,903.3334"
       id="path3907"
       inkscape:connector-curvature="0" />
    <path
       style="opacity:1;fill:none;stroke:#000000;stroke-width:15;stroke-linecap:round;stroke-miterlimit:4;stroke-opacity:1;stroke-dasharray:none;stroke-dashoffset:0"
       d="m 6226.6667,2366 143.3333,-3.3333 6.6667,-10 z"
       id="path3909"
       inkscape:connector-curvature="0" />
    <path
       style="opacity:1;fill:none;stroke:#000000;stroke-width:15;stroke-linecap:round;stroke-miterlimit:4;stroke-opacity:1;stroke-dasharray:none;stroke-dashoffset:0"
       d="m 6330,1216 c -84.2336,-1.2209 -115.8435,144.6416 -6.6667,146.6667 C 6472.0706,1321.1984 6364.3987,1219.242 6330,1216 z"
       id="path3911"
       inkscape:connector-curvature="0"
       sodipodi:nodetypes="ccc" />
    <path
       sodipodi:type="arc"
       style="opacity:1;fill:none;stroke:#000000;stroke-width:15;stroke-linecap:round;stroke-miterlimit:4;stroke-opacity:1;stroke-dasharray:none;stroke-dashoffset:0"
       id="path3913"
       sodipodi:cx="6325"
       sodipodi:cy="1291"
       sodipodi:rx="81.666664"
       sodipodi:ry="81.666664"
       d="m 6406.6638,1290.3119 a 81.666664,81.666664 0 1 1 -0.023,-1.3498"
       sodipodi:start="6.274759"
       sodipodi:end="12.541414"
       sodipodi:open="true" />
    <path
       style="opacity:1;fill:none;stroke:#000000;stroke-width:15;stroke-linecap:round;stroke-miterlimit:4;stroke-opacity:1;stroke-dasharray:none;stroke-dashoffset:0"
       d="m 6536.6667,1466 10,163.3333 166.6666,6.6667 13.3334,723.3333 156.6666,10 L 6890,1626 l 140,10 10,-166.6667 -166.6667,0 -3.3333,-346.6666 -150,-3.3334 3.3333,356.6667 z"
       id="path3915"
       inkscape:connector-curvature="0" />
    <path
       style="opacity:1;fill:none;stroke:#000000;stroke-width:15;stroke-linecap:round;stroke-miterlimit:4;stroke-opacity:1;stroke-dasharray:none;stroke-dashoffset:0"
       d="M 6546.6667,1476 6720,1469.3333"
       id="path3917"
       inkscape:connector-curvature="0" />
    <path
       style="opacity:1;fill:none;stroke:#000000;stroke-width:15;stroke-linecap:round;stroke-miterlimit:4;stroke-opacity:1;stroke-dasharray:none;stroke-dashoffset:0"
       d="M 6556.6667,1632.6667 6710,1626"
       id="path3919"
       inkscape:connector-curvature="0" />
    <path
       style="opacity:1;fill:none;stroke:#000000;stroke-width:15;stroke-linecap:round;stroke-miterlimit:4;stroke-opacity:1;stroke-dasharray:none;stroke-dashoffset:0"
       d="M 6856.6667,1626 7060,1626"
       id="path3921"
       inkscape:connector-curvature="0" />
    <path
       style="opacity:1;fill:none;stroke:#000000;stroke-width:15;stroke-linecap:round;stroke-miterlimit:4;stroke-opacity:1;stroke-dasharray:none;stroke-dashoffset:0"
       d="m 6866.6667,1089.3333 30,1340"
       id="path3923"
       inkscape:connector-curvature="0" />
    <path
       style="opacity:1;fill:none;stroke:#000000;stroke-width:15;stroke-linecap:round;stroke-miterlimit:4;stroke-opacity:1;stroke-dasharray:none;stroke-dashoffset:0"
       d="m 7620,1956 c 75.3229,-471.684 -482.2233,-770.2182 -530,3.3333 -0.1361,596.7144 439.2349,485.7184 506.6667,123.3334 l -123.3334,-10 c -42.9387,220.9702 -293.9295,233.6862 -223.3333,-110 z"
       id="path3925"
       inkscape:connector-curvature="0"
       sodipodi:nodetypes="cccccc" />
    <path
       style="opacity:1;fill:none;stroke:#000000;stroke-width:15;stroke-linecap:round;stroke-miterlimit:4;stroke-opacity:1;stroke-dasharray:none;stroke-dashoffset:0"
       d="m 7256.6667,1842.6667 c -17.3399,-216.5292 225.2306,-309.9219 270,-6.6667 z"
       id="path3927"
       inkscape:connector-curvature="0"
       sodipodi:nodetypes="ccc" />
    <path
       style="opacity:1;fill:none;stroke:#000000;stroke-width:15;stroke-linecap:round;stroke-miterlimit:4;stroke-opacity:1;stroke-dasharray:none;stroke-dashoffset:0"
       d="m 7230,1959.3333 c -22.1074,229.108 117.0592,454.326 243.3333,116.6667"
       id="path3929"
       inkscape:connector-curvature="0"
       sodipodi:nodetypes="cc" />
    <path
       style="opacity:1;fill:none;stroke:#000000;stroke-width:15;stroke-linecap:round;stroke-miterlimit:4;stroke-opacity:1;stroke-dasharray:none;stroke-dashoffset:0"
       d="M 7463.3333,2069.3333 7610,2066"
       id="path3931"
       inkscape:connector-curvature="0" />
    <path
       style="opacity:1;fill:none;stroke:#000000;stroke-width:15;stroke-linecap:round;stroke-miterlimit:4;stroke-opacity:1;stroke-dasharray:none;stroke-dashoffset:0"
       d="m 7230,1826 290,10"
       id="path3933"
       inkscape:connector-curvature="0" />
    <path
       style="opacity:1;fill:none;stroke:#000000;stroke-width:15;stroke-linecap:round;stroke-miterlimit:4;stroke-opacity:1;stroke-dasharray:none;stroke-dashoffset:0"
       d="m 7146.6667,1666 70,-176.6667"
       id="path3935"
       inkscape:connector-curvature="0"
       sodipodi:nodetypes="cc" />
    <path
       style="opacity:1;fill:none;stroke:#000000;stroke-width:15;stroke-linecap:round;stroke-miterlimit:4;stroke-opacity:1;stroke-dasharray:none;stroke-dashoffset:0"
       d="m 7366.6667,1479.3333 c -319.1821,52.9967 -403.6145,933.3068 -30,900"
       id="path3937"
       inkscape:connector-curvature="0"
       sodipodi:nodetypes="cc" />
  </g>
  <g
     inkscape:groupmode="layer"
     id="layer5"
     inkscape:label="Dimension"
     style="display:inline"
     transform="translate(-298.55339,-754.70951)">
    <path
       style="opacity:1;fill:none;stroke:#000000;stroke-width:10;stroke-linecap:round;stroke-miterlimit:4;stroke-opacity:1;stroke-dasharray:none;stroke-dashoffset:0"
       d="m 480,2366 2660,0"
       id="path3940"
       inkscape:connector-curvature="0" />
    <path
       style="opacity:1;fill:none;stroke:#000000;stroke-width:10;stroke-linecap:round;stroke-miterlimit:4;stroke-opacity:1;stroke-dasharray:none;stroke-dashoffset:0"
       d="m 520,1176 1975.6463,0"
       id="path3942"
       inkscape:connector-curvature="0"
       sodipodi:nodetypes="cc" />
    <path
       style="opacity:1;fill:none;stroke:#000000;stroke-width:10;stroke-linecap:round;stroke-miterlimit:4;stroke-opacity:1;stroke-dasharray:none;stroke-dashoffset:0"
       d="m 2119.2403,1337.6868 0,417.2023 m 0,121.8379 0,99.6855 m 0,99.6855 0,365.5136"
       id="path4940"
       inkscape:connector-curvature="0"
       sodipodi:nodetypes="cccccc" />
    <path
       style="opacity:1;fill:none;stroke:#000000;stroke-width:10;stroke-linecap:round;stroke-miterlimit:4;stroke-opacity:1;stroke-dasharray:none;stroke-dashoffset:0"
       d="m 1794.3394,1932.1078 225.2154,0 m 59.0729,0 99.6855,0 m 44.3047,0 206.7552,0"
       id="path4942"
       inkscape:connector-curvature="0"
       sodipodi:nodetypes="cccccc" />
    <path
       style="opacity:1;fill:none;stroke:#000000;stroke-width:10;stroke-linecap:round;stroke-miterlimit:4;stroke-opacity:1;stroke-dasharray:none;stroke-dashoffset:0"
       d="m 2484.7539,1101.3951 -136.6061,0"
       id="path4944"
       inkscape:connector-curvature="0" />
    <path
       style="opacity:1;fill:none;stroke:#000000;stroke-width:10;stroke-linecap:round;stroke-miterlimit:4;stroke-opacity:1;stroke-dasharray:none;stroke-dashoffset:0"
       d="m 4493.2326,2201.6279 -339.6692,369.2057"
       id="path6627"
       inkscape:connector-curvature="0" />
    <path
       style="opacity:1;fill:none;stroke:#000000;stroke-width:10;stroke-linecap:round;stroke-miterlimit:4;stroke-opacity:1;stroke-dasharray:none;stroke-dashoffset:0"
       d="m 4891.9747,2245.9326 306.4406,302.7486"
       id="path6629"
       inkscape:connector-curvature="0" />
    <path
       style="opacity:1;fill:none;stroke:#000000;stroke-width:10;stroke-linecap:round;stroke-miterlimit:4;stroke-opacity:1;stroke-dasharray:none;stroke-dashoffset:0"
       d="m 3716.9769,1311.8424 0,1270.0673"
       id="path7001"
       inkscape:connector-curvature="0" />
    <path
       style="opacity:1;fill:none;stroke:#000000;stroke-width:10;stroke-linecap:round;stroke-miterlimit:4;stroke-opacity:1;stroke-dasharray:none;stroke-dashoffset:0"
       d="m 4140.0269,1090.319 0,1572.816"
       id="path7003"
       inkscape:connector-curvature="0" />
    <path
       style="opacity:1;fill:none;stroke:#000000;stroke-width:10;stroke-linecap:round;stroke-miterlimit:4;stroke-opacity:1;stroke-dasharray:none;stroke-dashoffset:0"
       d="m 7627.7917,1422.6041 0,1576.508"
       id="path7193"
       inkscape:connector-curvature="0"
       sodipodi:nodetypes="cc" />
    <path
       style="opacity:1;fill:none;stroke:#000000;stroke-width:10;stroke-linecap:round;stroke-miterlimit:4;stroke-opacity:1;stroke-dasharray:none;stroke-dashoffset:0"
       d="m 845.4809,2308.6976 0,664.5701"
       id="path7195"
       inkscape:connector-curvature="0" />
    <path
       style="opacity:1;fill:none;stroke:#000000;stroke-width:10;stroke-linecap:round;stroke-miterlimit:4;stroke-opacity:1;stroke-dasharray:none;stroke-dashoffset:0"
       d="m 3706.8246,1167.8522 4445.2358,0"
       id="path7567"
       inkscape:connector-curvature="0" />
    <path
       style="opacity:1;fill:none;stroke:#000000;stroke-width:10;stroke-linecap:round;stroke-miterlimit:4;stroke-opacity:1;stroke-dasharray:none;stroke-dashoffset:0"
       d="m 6318.4925,1160.4681 0,247.3677"
       id="path7569"
       inkscape:connector-curvature="0" />
    <path
       style="opacity:1;fill:none;stroke:#000000;stroke-width:10;stroke-linecap:round;stroke-miterlimit:4;stroke-opacity:1;stroke-dasharray:none;stroke-dashoffset:0"
       d="m 6195.2706,1290.1503 269.5201,0"
       id="path7571"
       inkscape:connector-curvature="0" />
    <flowRoot
       xml:space="preserve"
       id="flowRoot7657"
       style="font-size:150px;font-style:normal;font-variant:normal;font-weight:bold;font-stretch:normal;text-align:start;line-height:125%;writing-mode:lr-tb;text-anchor:start;opacity:1;fill:none;stroke:#000000;stroke-width:10;stroke-linecap:round;stroke-miterlimit:4;stroke-opacity:1;stroke-dasharray:none;stroke-dashoffset:0;font-family:CMU Bright;-inkscape-font-specification:CMU Bright Bold"><flowRegion
         id="flowRegion7659"><rect
           id="rect7661"
           width="820"
           height="210"
           x="3480"
           y="3136" /></flowRegion><flowPara
         id="flowPara7663" /></flowRoot>    <flowRoot
       xml:space="preserve"
       id="flowRoot7573-5"
       style="font-size:150px;font-style:normal;font-variant:normal;font-weight:500;font-stretch:normal;text-align:start;line-height:125%;letter-spacing:0px;word-spacing:0px;writing-mode:lr-tb;text-anchor:start;fill:#000000;fill-opacity:1;stroke:none;font-family:CMU Bright;-inkscape-font-specification:CMU Bright Medium;opacity:1"
       transform="translate(4000,886.42359)"><flowRegion
         id="flowRegion7575-2"><rect
           id="rect7577-5"
           width="260"
           height="290"
           x="220"
           y="1866"
           style="font-size:150px;font-style:normal;font-variant:normal;font-weight:500;font-stretch:normal;text-align:start;line-height:125%;writing-mode:lr-tb;text-anchor:start;font-family:CMU Bright;-inkscape-font-specification:CMU Bright Medium" /></flowRegion><flowPara
         id="flowPara7579-87"
         style="font-size:150px;font-style:normal;font-variant:normal;font-weight:500;font-stretch:normal;text-align:start;line-height:125%;writing-mode:lr-tb;text-anchor:start;font-family:CMU Bright;-inkscape-font-specification:CMU Bright Medium">68.0</flowPara></flowRoot>    <flowRoot
       xml:space="preserve"
       id="flowRoot7573-9"
       style="font-size:150px;font-style:normal;font-variant:normal;font-weight:500;font-stretch:normal;text-align:start;line-height:125%;letter-spacing:0px;word-spacing:0px;writing-mode:lr-tb;text-anchor:start;fill:#000000;fill-opacity:1;stroke:none;font-family:CMU Bright;-inkscape-font-specification:CMU Bright Medium;opacity:1"
       transform="translate(4940,-453.57641)"><flowRegion
         id="flowRegion7575-9"><rect
           id="rect7577-9"
           width="260"
           height="290"
           x="220"
           y="1866"
           style="font-size:150px;font-style:normal;font-variant:normal;font-weight:500;font-stretch:normal;text-align:start;line-height:125%;writing-mode:lr-tb;text-anchor:start;font-family:CMU Bright;-inkscape-font-specification:CMU Bright Medium" /></flowRegion><flowPara
         id="flowPara7579-3"
         style="font-size:150px;font-style:normal;font-variant:normal;font-weight:500;font-stretch:normal;text-align:start;line-height:125%;writing-mode:lr-tb;text-anchor:start;font-family:CMU Bright;-inkscape-font-specification:CMU Bright Medium">68.068</flowPara></flowRoot>    <path
       style="opacity:1;fill:none;stroke:#000000;stroke-width:10;stroke-miterlimit:4;stroke-opacity:1;stroke-dasharray:none;stroke-dashoffset:0"
       d="m 5508.5481,1623.7563 1761.1108,0"
       id="path4028"
       inkscape:connector-curvature="0"
       transform="translate(298.55339,754.7095)" />
  </g>
</svg>
